<?xml version="1.0" encoding="utf-8"?>
<!-- Generator: Adobe Illustrator 18.1.1, SVG Export Plug-In . SVG Version: 6.00 Build 0)  -->
<!DOCTYPE svg PUBLIC "-//W3C//DTD SVG 1.1//EN" "http://www.w3.org/Graphics/SVG/1.1/DTD/svg11.dtd">
<svg version="1.1" id="Layer_1" xmlns="http://www.w3.org/2000/svg" xmlns:xlink="http://www.w3.org/1999/xlink" x="0px" y="0px"
	 viewBox="0 0 612 792" enable-background="new 0 0 612 792" xml:space="preserve">
<g>
	<path fill="#1F41BF" d="M600.3,396c0,162.6-131.8,294.4-294.4,294.4S11.5,558.6,11.5,396c0.2-162.6,132-294.4,294.6-294.4
		S600.3,233.4,600.3,396z"/>
</g>
<g id="s7T1Uq_1_">
	<g>
		<path fill="#FFFFFF" d="M291,602.8c-17-5.2-35.2-8.1-50.8-16c-53.6-27.3-81.3-72.3-82.8-132.2c-0.8-32,11.2-61.5,24.7-89.9
			c32.4-67.8,75.2-129,121.7-187.7c0.5-0.6,1.2-1.1,2.7-2.5c6.9,8.8,13.9,17.4,20.6,26.3c38.5,51.4,74.7,104.2,102.3,162.4
			c12.3,26.1,23,52.9,24.9,82.2c2.9,45.2-12.7,83.5-44.5,115.2c-23,22.8-50.9,36.1-83,40.7c-1.9,0.3-3.7,1.1-5.5,1.6
			C311.2,602.8,301.1,602.8,291,602.8z M292.1,250.8c-0.8-0.3-1.5-0.5-2.3-0.8c-7.1,12.9-14.3,25.9-21.4,38.8
			c-20,36.5-41.1,72.5-59.8,109.7c-19.8,39.4-15.6,78.7,7.3,115.9c10.2,16.6,24.6,29,43.6,38.5c-1.8-5.9-3.2-10.1-4.4-14.3
			c-10.5-36.3-18.7-72.9-10.7-110.8c6.5-30.6,14.1-61,22.2-91.2C274.5,307.9,283.5,279.4,292.1,250.8z"/>
	</g>
</g>
</svg>
