<?xml version="1.0" encoding="utf-8"?>
<!-- Generator: Adobe Illustrator 18.1.1, SVG Export Plug-In . SVG Version: 6.00 Build 0)  -->
<!DOCTYPE svg PUBLIC "-//W3C//DTD SVG 1.1//EN" "http://www.w3.org/Graphics/SVG/1.1/DTD/svg11.dtd">
<svg version="1.1" id="Layer_1" xmlns="http://www.w3.org/2000/svg" xmlns:xlink="http://www.w3.org/1999/xlink" x="0px" y="0px"
	 viewBox="0 0 612 792" enable-background="new 0 0 612 792" xml:space="preserve">
<g>
	<path fill="#8E2F44" d="M600.3,396c0,162.6-131.8,294.4-294.4,294.4S11.5,558.6,11.5,396c0.2-162.6,132-294.4,294.6-294.4
		S600.3,233.4,600.3,396z"/>
</g>
<text transform="matrix(1 0 0 1 385.373 370.9365)" opacity="0.8" fill="#BABCBE" enable-background="new    " font-family="'ArialMT'" font-size="66.2337">55</text>
<g>
	<g>
		<g>
			<g>
				<path fill="#F7F1E6" d="M144.6,507.3c-8.5,0-15.2-5.3-15.2-11.7V292.3c0-6.5,6.9-11.7,15.2-11.7h340.8c8.5,0,15.2,5.3,15.2,11.7
					v203.3c0,6.5-6.9,11.7-15.2,11.7H144.6L144.6,507.3z"/>
				<path fill="#449F98" d="M163.1,496c-8.5,0-15.2-6-15.2-13.3V306.3c0-7.3,6.9-13.3,15.2-13.3h281c8.5,0,15.2,6,15.2,13.3v176.4
					c0,7.3-6.9,13.3-15.2,13.3H163.1z"/>
			</g>
			<path fill="#E0DCD3" d="M477.4,438.3c-3.7,0-6.7-3-6.7-6.7v-75.2c0-3.7,3-6.7,6.7-6.7l0,0c3.7,0,6.7,3,6.7,6.7v75.2
				C484.1,435.3,481.1,438.3,477.4,438.3L477.4,438.3z"/>
		</g>
	</g>
	<g>
		<g>
			<g>
				<path fill="#CE3B4B" d="M227.4,317.4c-2.8-1.4-5.8-2.3-9.2-2.3c-6,0-11.3,2.7-14.7,6.9c-3.5-4.2-8.8-6.9-14.7-6.9
					c-3.4,0-6.5,0.9-9.2,2.3c-5.8,3.4-9.9,9.6-9.9,16.8c0,2.1,0.4,4.1,0.9,5.8c3.4,14.9,32.9,33.4,32.9,33.4s29.7-18.6,32.9-33.4
					c0.7-1.9,0.9-3.9,0.9-5.8C237.3,327,233.4,320.6,227.4,317.4z"/>
			</g>
		</g>
	</g>
	<g enable-background="new    ">
		<path fill="#19746D" d="M377.9,323.4h22.3v8.4h-15.5l-1.9,8.6c0.5-0.2,1.1-0.3,1.6-0.3c0.5-0.1,1-0.1,1.5-0.1
			c4.3,0,7.9,1.5,10.8,4.4c2.9,2.9,4.3,6.7,4.3,11.3c0,4.6-1.6,8.5-4.7,11.7c-3.2,3.2-7,4.8-11.5,4.8c-4.1,0-7.5-1.2-10.4-3.5
			c-2.9-2.3-4.8-5.5-5.7-9.5h9.5c0.7,1.5,1.7,2.6,2.9,3.4s2.5,1.1,4,1.1c2,0,3.7-0.7,5.1-2.2c1.4-1.4,2.1-3.3,2.1-5.6
			c0-2.2-0.7-4-2-5.4s-2.9-2.1-4.7-2.1c-1,0-2,0.2-2.9,0.7c-1,0.5-1.9,1.2-2.8,2.2l-7.4-1.6L377.9,323.4z"/>
		<path fill="#19746D" d="M413.2,323.4h22.3v8.4H420l-1.9,8.6c0.5-0.2,1.1-0.3,1.6-0.3c0.5-0.1,1-0.1,1.5-0.1
			c4.3,0,7.9,1.5,10.8,4.4c2.9,2.9,4.3,6.7,4.3,11.3c0,4.6-1.6,8.5-4.7,11.7c-3.2,3.2-7,4.8-11.5,4.8c-4.1,0-7.5-1.2-10.4-3.5
			c-2.9-2.3-4.8-5.5-5.7-9.5h9.5c0.7,1.5,1.7,2.6,2.9,3.4s2.5,1.1,4,1.1c2,0,3.7-0.7,5.1-2.2c1.4-1.4,2.1-3.3,2.1-5.6
			c0-2.2-0.7-4-2-5.4s-2.9-2.1-4.7-2.1c-1,0-2,0.2-2.9,0.7c-1,0.5-1.9,1.2-2.8,2.2l-7.4-1.6L413.2,323.4z"/>
	</g>
	<g>
		<g>
			<defs>
				<path id="SVGID_1_" d="M163.1,496c-8.5,0-15.2-6-15.2-13.3V306.3c0-7.3,6.9-13.3,15.2-13.3h281c8.5,0,15.2,6,15.2,13.3v176.4
					c0,7.3-6.9,13.3-15.2,13.3H163.1z"/>
			</defs>
			<clipPath id="SVGID_2_">
				<use xlink:href="#SVGID_1_"  overflow="visible"/>
			</clipPath>
			<path clip-path="url(#SVGID_2_)" fill="#136963" d="M236,483.9c-2.1,0-4.1-1.6-4.4-3.9l-9-65.8l-7.3,15.9
				c-0.7,1.6-2.3,2.7-4.1,2.7h-68.5c-2.5,0-4.4-1.9-4.4-4.4c0-2.5,1.9-4.4,4.4-4.4h65.8l12.4-27.2c0.9-1.8,2.7-2.8,4.6-2.5
				c1.9,0.4,3.5,1.8,3.7,3.7l6.4,46.4l6.9-58c0.4-2.3,2.3-4.1,4.6-3.9c2.3,0,4.2,1.9,4.2,4.2l1.8,31.8l8.1-56.1
				c0.4-2.1,2.1-3.7,4.4-3.7l0,0c2.3,0,4.1,1.8,4.4,3.9l7.4,62.1l9.9-37c0.5-2.1,2.5-3.4,4.6-3.4c2.1,0.2,3.9,1.8,4.1,3.7l8,55.7
				l16.3-105.5c0.4-2.3,2.5-3.7,4.6-3.7c2.3,0.2,4.1,1.9,4.2,4.2l5.8,101.2l12.2-62.8c0.4-2.1,2.3-3.7,4.4-3.5
				c2.1,0,3.9,1.6,4.2,3.7l6.2,42.3l5-9.6c0.7-1.4,2.1-2.5,3.9-2.3c1.6,0,3.2,0.9,3.9,2.5l6.9,13.6h81.4c2.5,0,4.4,1.9,4.4,4.4
				c0,2.5-1.9,4.4-4.4,4.4h-84c-1.6,0-3.2-0.9-3.9-2.5L371,422l-7.4,14c-0.9,1.8-2.8,2.7-4.6,2.3c-1.9-0.4-3.4-1.8-3.7-3.7
				l-4.4-30.1l-14,71.7c-0.4,2.1-2.5,3.7-4.6,3.5c-2.3-0.2-4.1-1.9-4.1-4.1l-5.5-94.5l-14.5,93.6c-0.4,2.1-2.1,3.7-4.4,3.7l0,0
				c-2.1,0-4.1-1.6-4.4-3.9l-9.2-63.7l-10.3,38.2c-0.5,2.1-2.5,3.4-4.6,3.4c-2.1-0.2-3.9-1.8-4.1-3.9l-6.2-51.7l-9.7,66.7
				c-0.4,2.3-2.3,3.9-4.6,3.7c-2.3-0.2-4.1-1.9-4.2-4.2l-1.4-25.1l-5,42.1C240.1,482.3,238.3,483.9,236,483.9L236,483.9z"/>
		</g>
	</g>
</g>
</svg>
