<?xml version="1.0" encoding="utf-8"?>
<!-- Generator: Adobe Illustrator 18.1.1, SVG Export Plug-In . SVG Version: 6.00 Build 0)  -->
<!DOCTYPE svg PUBLIC "-//W3C//DTD SVG 1.1//EN" "http://www.w3.org/Graphics/SVG/1.1/DTD/svg11.dtd">
<svg version="1.1" id="Layer_1" xmlns="http://www.w3.org/2000/svg" xmlns:xlink="http://www.w3.org/1999/xlink" x="0px" y="0px"
	 viewBox="0 0 345.9 342.8" enable-background="new 0 0 345.9 342.8" xml:space="preserve">
<g>
	<path fill="#F38630" d="M339.3,171.4c0,91.9-74.5,166.4-166.4,166.4c-91.9,0-166.4-74.5-166.4-166.4C6.6,79.5,81.1,5,173,5
		C264.9,5,339.3,79.5,339.3,171.4z"/>
	<g>
		<path fill="#FFFFFF" d="M138.8,195.2l9.9-47.7c0.4-1.8,1.9-3.1,3.8-3c1.8,0,3.3,1.4,3.6,3.2l11.1,70.2l9.6-88.3
			c0.2-1.9,1.8-3.4,3.8-3.4c0,0,0,0,0,0c1.9,0,3.6,1.5,3.7,3.4l5.9,65.7l10-27c0.6-1.6,2.2-2.6,3.9-2.4c1.7,0.2,3.1,1.4,3.4,3.1
			l4.6,27.5h45.9c10.3-14.1,17.2-28.6,17.2-42c0-30.7-24.9-55.6-55.6-55.6c-18.5,0-34.8,9.1-44.9,23C164.8,108,148.5,99,130,99
			c-30.7,0-55.6,17.4-55.6,55.6c0,13.2,6.2,27.1,15.5,40.6H138.8z"/>
		<path fill="#FFFFFF" d="M209.1,204.1c-1.8,0-3.4-1.3-3.7-3.1l-2.8-16.8l-10.9,29.4c-0.6,1.7-2.3,2.7-4,2.4
			c-1.7-0.2-3.1-1.6-3.3-3.4l-4-44.5l-8.6,78.7c-0.2,1.9-1.8,3.3-3.7,3.4c0,0-0.1,0-0.1,0c-1.8,0-3.4-1.3-3.7-3.2l-12.3-77.7
			l-6.3,30.5c-0.4,1.8-1.9,3-3.7,3H95.5c29.5,37.7,79.4,70,79.4,70s47.8-32,77.5-68.6H209.1z"/>
	</g>
</g>
</svg>
