<?xml version="1.0" encoding="utf-8"?>
<!-- Generator: Adobe Illustrator 18.1.1, SVG Export Plug-In . SVG Version: 6.00 Build 0)  -->
<!DOCTYPE svg PUBLIC "-//W3C//DTD SVG 1.1//EN" "http://www.w3.org/Graphics/SVG/1.1/DTD/svg11.dtd">
<svg version="1.1" id="Layer_1" xmlns="http://www.w3.org/2000/svg" xmlns:xlink="http://www.w3.org/1999/xlink" x="0px" y="0px"
	 viewBox="0 0 345.9 342.8" enable-background="new 0 0 345.9 342.8" xml:space="preserve">
<g>
	<path fill="#8E2F44" d="M339.3,171.4c0,91.9-74.5,166.4-166.4,166.4c-91.9,0-166.4-74.5-166.4-166.4C6.6,79.5,81.1,5,173,5
		C264.9,5,339.3,79.5,339.3,171.4z"/>
</g>
<g>
	<path fill="#E0DCD3" d="M290.7,186h-15.2v-63.2c0-33.6-27.3-60.9-60.9-60.9c-33.6,0-60.9,27.3-60.9,60.9v18.5h-15.2v-18.5
		c0-42,34.1-76.1,76.1-76.1c41.9,0,76.1,34.1,76.1,76.1V186z"/>
	<path fill="#F7F1E6" d="M214.5,230.1c0,35.5-28.8,64.3-64.3,64.3h-5.4c-35.5,0-64.3-28.8-64.3-64.3v-42.8
		c0-35.5,28.8-64.3,64.3-64.3h5.4c35.5,0,64.3,28.8,64.3,64.3V230.1z"/>
	<path fill="#E0DCD3" d="M154.4,176.6c0,3.8-3.1,6.9-6.9,6.9l0,0c-3.8,0-6.9-3.1-6.9-6.9v-22.8c0-3.8,3.1-6.9,6.9-6.9l0,0
		c3.8,0,6.9,3.1,6.9,6.9V176.6z"/>
	<path fill="#F19C35" d="M175.7,223.8H159v-16.7c0-2.5-2-4.5-4.5-4.5h-13.9c-2.5,0-4.5,2-4.5,4.5v16.7h-16.7c-2.5,0-4.5,2-4.5,4.5
		v13.9c0,2.5,2,4.5,4.5,4.5h16.7v16.7c0,2.5,2,4.5,4.5,4.5h13.9c2.5,0,4.5-2,4.5-4.5v-16.7h16.7c2.5,0,4.5-2,4.5-4.5v-13.9
		C180.2,225.9,178.2,223.8,175.7,223.8z"/>
</g>
</svg>
