<?xml version="1.0" encoding="utf-8"?>
<!-- Generator: Adobe Illustrator 18.1.1, SVG Export Plug-In . SVG Version: 6.00 Build 0)  -->
<!DOCTYPE svg PUBLIC "-//W3C//DTD SVG 1.1//EN" "http://www.w3.org/Graphics/SVG/1.1/DTD/svg11.dtd">
<svg version="1.1" id="Layer_1" xmlns="http://www.w3.org/2000/svg" xmlns:xlink="http://www.w3.org/1999/xlink" x="0px" y="0px"
	 viewBox="0 0 612 792" enable-background="new 0 0 612 792" xml:space="preserve">
<g>
	<path fill="#5D0460" d="M600.3,396c0,162.6-131.8,294.4-294.4,294.4S11.5,558.6,11.5,396c0.2-162.6,132-294.4,294.6-294.4
		S600.3,233.4,600.3,396z"/>
</g>
<g>
	<g>
		<path fill="#FFFFFF" d="M391.2,392.6c-2.8-3.4-6.3-8.1-7.3-10.7c-1.7-4.6-2.9-19.5-2.9-19.5c-0.5-17.6-4.8-25.2-4.8-25.2
			c-7.4-11.9-8.8-34.1-8.8-34.1l-0.3-37.4c-2.6-25.6-21.4-25.7-21.4-25.7c-19-2.9-21.7-9-21.7-9c-4-5.8-1.7-16.9-1.7-16.9
			c3.4-2.7,4.6-10,4.6-10c5.5-4.2,5.3-10.5,2.8-10.4c-2.1,0.1-1.6-1.6-1.6-1.6c3.5-28.1-21.5-29.4-21.5-29.4h-3.8
			c0,0-24.9,1.4-21.4,29.4c0,0,0.4,1.7-1.6,1.6c-2.6-0.1-2.8,6.2,2.8,10.4c0,0,1.3,7.2,4.6,10c0,0,2.3,11.1-1.7,16.9
			c0,0-2.6,6.1-21.7,9c0,0-18.8,0.2-21.4,25.7l-0.3,37.4c0,0-1.4,22.2-8.8,34.1c0,0-4.3,7.6-4.8,25.2c0,0-1.2,14.9-2.9,19.5
			c-1,2.7-4.6,7.3-7.3,10.7c-5.4,6.8-14.5,20.9-9.7,22.4c0,0,3.8,0.4,8.8-9.6c0,0-0.1,3.8-4.1,14.9c-0.8,2.1-4.1,12.6,1.3,8.8
			c0,0,2.5-1.7,5.8-12.5c0,0-1.7,18.2,0.2,19.1c2.6,1.2,4-2.3,5.1-18.3c0,0,1.2-5.1,1.7,14.5c0,1,1.5,6.1,3.6,1.8
			c1.7-3.6,1-13.2,1-16.4c0,0,2.3,12.4,4.3,12.4c0,0,2.5,2.9,1.5-12.5c-0.2-2.5,0.7-7.7,0.8-9.2l0.3-5.9c0,0-0.6-6.8-0.6-9.6
			c0-0.7,2.4-10,8.8-19.7c0,0,13.3-23.6,12.5-39c0,0-0.2-14.7,5.2-23.1c0,0,3.8,41.7,1.2,53.4c0,0-12,28.8-9.4,50.2
			c2,15.9,5.7,50.1,9.5,63.5c2,7,0.8,24.6,2.4,28.9c0.7,1.9,0.3,3.6-1.2,8c-5.4,15.1-4.7,25.7,8.8,65.8c0,0,4.2,8.9,2.1,24.8
			c0,0-8.6,17.8-3.1,18.1c0,0,0.5,1.2,2.3,0.2c0,0,3,3.1,6.2,1.4c0,0,3,2.4,5.5,0.3c0,0,2.1,2.3,5.1,0.4c0,0,3.9,2.6,6.2-0.2
			c0,0,4.2,1-3.2-17.7c0,0-2.8-19.8-4.4-23.7c-2.9-7.4-0.9-27.6-0.2-31.9c1-7.2,0.5-19.6-1.4-29.1c-1.3-6.9,2.4-19.8,3.7-27.7
			c2.8-16.7,8.3-59.4,7.6-67.4l2.3,0.8c1.6,0,2.7-0.8,2.7-0.8c-0.7,8.1,4.8,50.7,7.6,67.4c1.3,7.9,5,20.8,3.7,27.7
			c-1.9,9.5-2.4,21.9-1.4,29.1c0.6,4.4,2.8,24.5-0.2,31.9c-1.6,3.9-4.4,23.7-4.4,23.7c-7.4,18.7-3.2,17.7-3.2,17.7
			c2.3,2.8,6.2,0.2,6.2,0.2c3,1.9,5.1-0.4,5.1-0.4c2.5,2.1,5.5-0.3,5.5-0.3c3.3,1.6,6.2-1.4,6.2-1.4c1.8,1,2.3-0.2,2.3-0.2
			c5.5-0.4-3.1-18.1-3.1-18.1c-2.1-16,2.1-24.8,2.1-24.8c13.5-40.1,14.2-50.7,8.8-65.8c-1.6-4.3-1.9-6.1-1.2-8
			c1.6-4.4,0.4-22,2.4-28.9c3.8-13.4,7.6-47.6,9.5-63.5c2.6-21.5-9.3-50.2-9.3-50.2c-2.6-11.7,1.2-53.4,1.2-53.4
			c5.4,8.3,5.2,23.1,5.2,23.1c-0.9,15.4,12.4,39,12.4,39c6.4,9.8,8.8,19,8.8,19.7c0,2.8-0.6,9.6-0.6,9.6l0.2,5.9
			c0.1,1.5,1,6.7,0.8,9.2c-1,15.4,1.5,12.5,1.5,12.5c2.1,0,4.3-12.4,4.3-12.4c0,3.2-0.8,12.8,1,16.4c2.1,4.3,3.6-0.8,3.6-1.8
			c0.5-19.7,1.7-14.5,1.7-14.5c1.1,16,2.6,19.6,5.1,18.3c1.9-1,0.2-19.1,0.2-19.1c3.3,10.8,5.8,12.5,5.8,12.5
			c5.4,3.8,2.1-6.7,1.3-8.8c-4-11.1-4.1-14.9-4.1-14.9c5,10,8.8,9.6,8.8,9.6C405.8,413.5,396.6,399.4,391.2,392.6z"/>
	</g>
</g>
</svg>
