<?xml version="1.0" encoding="utf-8"?>
<!-- Generator: Adobe Illustrator 18.1.1, SVG Export Plug-In . SVG Version: 6.00 Build 0)  -->
<!DOCTYPE svg PUBLIC "-//W3C//DTD SVG 1.1//EN" "http://www.w3.org/Graphics/SVG/1.1/DTD/svg11.dtd">
<svg version="1.1" id="Layer_1" xmlns="http://www.w3.org/2000/svg" xmlns:xlink="http://www.w3.org/1999/xlink" x="0px" y="0px"
	 viewBox="0 0 612 792" enable-background="new 0 0 612 792" xml:space="preserve">
<g>
	<path fill="#8C308C" d="M600.3,396c0,162.6-131.8,294.4-294.4,294.4S11.5,558.6,11.5,396c0.2-162.6,132-294.4,294.6-294.4
		S600.3,233.4,600.3,396z"/>
</g>
<g>
	<path fill="#E0DCD3" d="M423.7,396.3h-21v-97.9c0-52.7-42.9-95.6-95.6-95.6c-52.7,0-95.6,42.9-95.6,95.6v28.7h-21v-28.7
		c0-64.3,52.3-116.6,116.6-116.6S423.7,234,423.7,298.3V396.3z"/>
	<path fill-rule="evenodd" clip-rule="evenodd" fill="#FFFFFF" d="M434.9,364.3c0,12.3-10,22.3-22.3,22.3c-12.3,0-22.3-10-22.3-22.3
		c0-12.3,10-22.3,22.3-22.3C424.9,342,434.9,352,434.9,364.3z"/>
	<g>
		<g>
			<path fill="#F7F1E6" d="M285.6,580.1c0,6.2-3.9,11.2-8.6,11.2H127.6c-4.8,0-8.6-5.1-8.6-11.2V314.9c0-6.2,3.9-11.2,8.6-11.2H277
				c4.7,0,8.6,5.1,8.6,11.2V580.1z"/>
			<path fill="#449F98" d="M277.2,551.7c0,6.2-4.4,11.2-9.7,11.2H137.9c-5.3,0-9.7-5.1-9.7-11.2V345.3c0-6.2,4.4-11.2,9.7-11.2
				h129.6c5.3,0,9.7,5.1,9.7,11.2V551.7z"/>
		</g>
		<path fill="#E0DCD3" d="M234.9,320.8c0,2.7-2.2,4.9-4.9,4.9h-55.3c-2.7,0-4.9-2.2-4.9-4.9l0,0c0-2.7,2.2-4.9,4.9-4.9h55.3
			C232.7,315.9,234.9,318.1,234.9,320.8L234.9,320.8z"/>
	</g>
	<path fill-rule="evenodd" clip-rule="evenodd" fill="#F4DDC0" d="M398.6,461.9c-0.6,8.3-1.5,18.4-2.5,30.3l-20.3-38.4
		c-8.6-16.2-23.8-10.2-30-3.8l38.9,89c5.4,12.4,24.3,20,42.9,22.2c38.5,4.5,64.3-18.5,69.7-71.4l12.2-39.9
		c5-16.8-18.9-23.7-23.8-6.7l-4.8,16.8c-0.6-1-1.6-1.9-2.6-2.8l6-33.9c3.6-19.1-20.9-21.5-24.2-5.1l-5.5,28
		c-0.7-0.2-2.2-0.4-2.7-0.5l4.1-36.1c1.8-16.3-22.8-18.8-24.6-2.7l-4.7,41.8c-1.2,0.5-2.3,1-3.4,1.6l0.7-84.4
		c0.1-16.1-24.6-16.8-24.7-0.1L398.6,461.9z"/>
	<g>
		<path fill="#19746D" d="M197.4,397.1h-28.8l-0.3,17.8c2-0.9,7.2-1.5,9.5-1.5c13.4,0,22.1,9.6,22.1,23.5c0,14.2-11.1,23.5-25,23.5
			c-9.6,0-18.1-5.1-21.4-14.4l9.7-3.3c2.5,6.5,6.8,9.2,13.2,9.2c7.6,0,13.9-5.5,13.9-14.6c0-10.3-7-15.6-17.2-15.6
			c-3.6,0-9.8,1.3-14.7,3.7l0.8-37.5h38.2V397.1z"/>
		<path fill="#19746D" d="M202.5,448.9l28.5-28.3c3.9-3.8,7.8-8.7,7.8-14.6c0-7-5.5-11.3-12.2-11.3c-6.9,0-11.7,4.2-13,10.9
			l-10.4-0.9c1.9-12.6,11.2-18.5,23.5-18.5c12.2,0,22.4,6.6,22.4,19.7c0,9.3-6,16.1-12.4,22.2l-23.4,22.6h35.7v8.4h-46.6V448.9z"/>
	</g>
	<path fill-rule="evenodd" clip-rule="evenodd" fill="#F19C35" d="M245.9,494.7c0,1.8-1.4,3.2-3.2,3.2h-75c-1.8,0-3.2-1.4-3.2-3.2
		v-5.1c0-1.8,1.4-3.2,3.2-3.2h75c1.8,0,3.2,1.4,3.2,3.2V494.7z"/>
	<g>
		<path fill="#136963" d="M259.3,511.3c0,1.6-1.3,2.9-2.9,2.9H154.8c-1.6,0-2.9-1.3-2.9-2.9l0,0c0-1.6,1.3-2.9,2.9-2.9h101.6
			C258,508.5,259.3,509.8,259.3,511.3L259.3,511.3z"/>
		<path fill="#136963" d="M259.3,524.9c0,1.6-1.3,2.9-2.9,2.9H154.8c-1.6,0-2.9-1.3-2.9-2.9l0,0c0-1.6,1.3-2.9,2.9-2.9h101.6
			C258,522.1,259.3,523.3,259.3,524.9L259.3,524.9z"/>
		<path fill="#136963" d="M259.3,538.5c0,1.6-1.3,2.9-2.9,2.9H154.8c-1.6,0-2.9-1.3-2.9-2.9l0,0c0-1.6,1.3-2.9,2.9-2.9h101.6
			C258,535.6,259.3,536.9,259.3,538.5L259.3,538.5z"/>
	</g>
</g>
</svg>
