<?xml version="1.0" encoding="utf-8"?>
<!-- Generator: Adobe Illustrator 18.1.1, SVG Export Plug-In . SVG Version: 6.00 Build 0)  -->
<!DOCTYPE svg PUBLIC "-//W3C//DTD SVG 1.1//EN" "http://www.w3.org/Graphics/SVG/1.1/DTD/svg11.dtd">
<svg version="1.1" id="Layer_1" xmlns="http://www.w3.org/2000/svg" xmlns:xlink="http://www.w3.org/1999/xlink" x="0px" y="0px"
	 viewBox="0 0 345.9 342.8" enable-background="new 0 0 345.9 342.8" xml:space="preserve">
<g>
	<path fill="#2F7C91" d="M339.3,171.4c0,91.9-74.5,166.4-166.4,166.4c-91.9,0-166.4-74.5-166.4-166.4C6.6,79.5,81.1,5,173,5
		C264.9,5,339.3,79.5,339.3,171.4z"/>
</g>
<g>
	<path fill="#FFFFFF" d="M209.8,74.9c-1.7-0.4-3.5-0.1-4.9,0.9c-3,1.9-3.9,6.1-2.1,8.9c0.4,0.7,1.6,2.9,2.8,6.5h-65.3
		c1.3-4,2.8-6.4,2.8-6.4c1.9-3,1-7.1-2.1-9c-3-1.9-7.1-1.1-9.1,2.1c-0.3,0.5-27,46.1,30.6,91.8c-2.5,2.2-5,4.5-7.3,6.8
		c-42.2,42.2-31.8,84.8-31.4,86.6c0.7,2.9,3.3,4.9,6.2,4.9c0.6,0,1.2-0.1,1.8-0.2c2.7-0.7,5.6-4.2,4.7-7.9c-0.2-0.6-0.9-3.9-1-9.1
		l74.9,0c-0.1,5.2-0.9,8.5-1,9.1c-0.9,3.5,1.2,7.1,4.7,8c0.5,0.1,1,0.2,1.6,0.2c1.7,0,3.3-0.7,4.6-2c0.8-0.8,1.4-1.8,1.7-2.9
		c0.5-2,11.8-49.4-38.7-93.5c4.3-3.4,8.3-7,11.9-10.6c42-42,18.9-80.9,18.6-81.3C213,76.3,211.5,75.3,209.8,74.9z M192.8,198.9
		l-39.7,0c5.4-7.3,12.2-14.5,19.9-21C180.7,184.5,187.4,191.5,192.8,198.9z M136.6,236.5c1.3-7.6,3.8-15.1,7.4-22.7l0.5-1.4
		l56.8,0.2l0.8,1.5c3.5,7.3,6,14.7,7.2,22l0.2,2.1l-73-0.1L136.6,236.5z M153.5,142.9l38.8,0.1c-5.2,6.3-11.7,12.5-19.3,18.2
		C165.3,155.4,158.7,149.2,153.5,142.9z M201.3,129.6l-56.6,0.2l-0.2-0.3c-4.1-7.8-6.2-15.9-6.3-23.9l0-0.3l69.5-0.5l0.1,0.8
		c-0.1,8-2.2,16-6,23.4L201.3,129.6z"/>
</g>
</svg>
