<?xml version="1.0" encoding="utf-8"?>
<!-- Generator: Adobe Illustrator 18.1.1, SVG Export Plug-In . SVG Version: 6.00 Build 0)  -->
<!DOCTYPE svg PUBLIC "-//W3C//DTD SVG 1.1//EN" "http://www.w3.org/Graphics/SVG/1.1/DTD/svg11.dtd">
<svg version="1.1" id="Layer_1" xmlns="http://www.w3.org/2000/svg" xmlns:xlink="http://www.w3.org/1999/xlink" x="0px" y="0px"
	 viewBox="0 0 345.9 342.8" enable-background="new 0 0 345.9 342.8" xml:space="preserve">
<g>
	<path fill="#2E3192" d="M339.3,171.4c0,91.9-74.5,166.4-166.4,166.4c-91.9,0-166.4-74.5-166.4-166.4C6.6,79.5,81.1,5,173,5
		C264.9,5,339.3,79.5,339.3,171.4z"/>
</g>
<path fill="#FFFFFF" d="M199.9,113.4c0-14.8-12-26.8-26.8-26.8c-14.8,0-26.8,12-26.8,26.8v80.9c-6.6,6.8-10.7,16-10.7,26.2
	c0,20.7,16.8,37.5,37.5,37.5c20.7,0,37.5-16.8,37.5-37.5c0-10.2-4.1-19.4-10.7-26.2V113.4L199.9,113.4z M173.2,247.3
	c-1.1,0-2.2-0.1-3.2-0.3c-13.2-1.6-23.5-12.8-23.5-26.5c0-8.7,4.2-16.4,10.7-21.3v-85.8c0-8.9,7.2-16.1,16.1-16.1
	c8.9,0,16.1,7.2,16.1,16.1v85.8c6.5,4.9,10.7,12.6,10.7,21.3C199.9,235.3,188,247.3,173.2,247.3z"/>
<path fill="#FFFFFF" d="M178.5,205.4v-75.9h-10.7v75.9c-6.2,2.2-10.7,8.1-10.7,15.1c0,8.9,7.2,16.1,16.1,16.1
	c8.9,0,16.1-7.2,16.1-16.1C189.2,213.5,184.7,207.7,178.5,205.4z"/>
</svg>
