<?xml version="1.0" encoding="utf-8"?>
<!-- Generator: Adobe Illustrator 18.1.1, SVG Export Plug-In . SVG Version: 6.00 Build 0)  -->
<!DOCTYPE svg PUBLIC "-//W3C//DTD SVG 1.1//EN" "http://www.w3.org/Graphics/SVG/1.1/DTD/svg11.dtd">
<svg version="1.1" id="Layer_1" xmlns="http://www.w3.org/2000/svg" xmlns:xlink="http://www.w3.org/1999/xlink" x="0px" y="0px"
	 viewBox="0 0 345.9 342.8" enable-background="new 0 0 345.9 342.8" xml:space="preserve">
<g>
	<path fill="#2F7C91" d="M339.3,171.4c0,91.9-74.5,166.4-166.4,166.4c-91.9,0-166.4-74.5-166.4-166.4C6.6,79.5,81.1,5,173,5
		C264.9,5,339.3,79.5,339.3,171.4z"/>
</g>
<path fill-rule="evenodd" clip-rule="evenodd" fill="#F4DDC0" d="M122.7,175.2c-0.8,10.8-2,23.8-3.2,39.3l-26.2-49.7
	c-11.1-21-30.7-13.2-38.8-4.9l50.3,115.2c7,16.1,31.4,25.9,55.5,28.7c49.8,5.8,83.2-24,90.2-92.4l21.9-82
	c6.5-21.8-24.4-30.7-30.8-8.6l-12.4,52.1c-0.8-1.2-2.1-2.5-3.3-3.6l16.5-85.2c4.7-24.8-27.1-30.3-31.3-9.1l-15.8,80
	c-0.9-0.3-2.8-0.5-3.5-0.6l7.7-101.8c2.4-21.1-29.5-24.4-31.8-3.4l-8.5,109.2c-1.5,0.6-3,1.3-4.4,2l0.9-101.9
	c0.2-20.8-31.8-21.8-32-0.1L122.7,175.2z"/>
<g>
	<g>
		<path fill="#2F7C91" d="M186.4,195.7c0-7.3-5.9-13.3-13.3-13.3s-13.3,5.9-13.3,13.3v40.1c-3.3,3.3-5.3,7.9-5.3,13
			c0,10.3,8.3,18.6,18.6,18.6c10.3,0,18.6-8.3,18.6-18.6c0-5-2-9.6-5.3-13V195.7L186.4,195.7z M173.2,261.9c-0.5,0-1.1-0.1-1.6-0.2
			c-6.6-0.8-11.6-6.3-11.6-13.1c0-4.3,2.1-8.1,5.3-10.5v-42.5c0-4.4,3.6-8,8-8c4.4,0,8,3.6,8,8v42.5c3.2,2.4,5.3,6.2,5.3,10.5
			C186.4,256,180.5,261.9,173.2,261.9z"/>
		<path fill="#2F7C91" d="M175.8,241.2v-37.6h-5.3v37.6c-3.1,1.1-5.3,4-5.3,7.5c0,4.4,3.6,8,8,8c4.4,0,8-3.6,8-8
			C181.1,245.2,178.9,242.3,175.8,241.2z"/>
	</g>
</g>
</svg>
